<svg xmlns="http://www.w3.org/2000/svg" width="1200" height="675" viewBox="0 0 1200 675" role="img" aria-labelledby="title desc">
  <title>FermatMind editorial cover placeholder for are-infj-men-rare-or-socially-silenced</title>
  <desc>Abstract academic editorial cover placeholder generated in-house for launch readiness.</desc>
  <defs>
    <linearGradient id="bg" x1="0" y1="0" x2="1" y2="1"><stop offset="0" stop-color="#101820"/><stop offset="1" stop-color="#020617"/></linearGradient>
    <radialGradient id="wash" cx="34%" cy="22%" r="70%"><stop offset="0" stop-color="#263241" stop-opacity=".92"/><stop offset="1" stop-color="#263241" stop-opacity="0"/></radialGradient>
    <pattern id="grid" width="56" height="56" patternUnits="userSpaceOnUse"><path d="M56 0H0v56" fill="none" stroke="#e2e8f0" stroke-opacity=".055" stroke-width="1"/></pattern>
  </defs>
  <rect width="1200" height="675" fill="url(#bg)"/>
  <rect width="1200" height="675" fill="url(#grid)"/>
  <rect width="1200" height="675" fill="url(#wash)"/>
  <rect x="86" y="78" width="1028" height="520" rx="34" fill="#0f172a" fill-opacity=".28" stroke="#e2e8f0" stroke-opacity=".12"/>
  <path d="M134 132h184M134 166h96" stroke="#e2e8f0" stroke-opacity=".18" stroke-width="7" stroke-linecap="round"/>
  <path d="M1066 544h-184M1066 510h-96" stroke="#e2e8f0" stroke-opacity=".16" stroke-width="7" stroke-linecap="round"/>
  
      <path d="M410 188c-54 38-82 91-82 158 0 98 70 172 170 172 42 0 76-9 112-31" fill="none" stroke="#7c6f99" stroke-width="9" opacity=".78"/>
      <path d="M514 178c86 25 148 95 148 178 0 44-18 85-47 116" fill="none" stroke="#e2e8f0" stroke-width="7" opacity=".25"/>
      <rect x="674" y="226" width="210" height="132" rx="20" fill="none" stroke="#c9a85f" stroke-width="6" opacity=".7"/>
      <path d="M710 272h128M710 316h74M286 528h600" stroke="#dbeafe" stroke-width="5" opacity=".22"/>
      <path d="M620 250c-90 70-158 146-210 260" stroke="#dbeafe" stroke-width="5" opacity=".2"/>
</svg>
