<svg xmlns="http://www.w3.org/2000/svg" width="1200" height="675" viewBox="0 0 1200 675" role="img" aria-labelledby="title desc">
  <title>FermatMind editorial cover placeholder for best-valentines-date-by-personality-and-relationship-science</title>
  <desc>Abstract academic editorial cover placeholder generated in-house for launch readiness.</desc>
  <defs>
    <linearGradient id="bg" x1="0" y1="0" x2="1" y2="1"><stop offset="0" stop-color="#0f172a"/><stop offset="1" stop-color="#020617"/></linearGradient>
    <radialGradient id="wash" cx="34%" cy="22%" r="70%"><stop offset="0" stop-color="#203047" stop-opacity=".92"/><stop offset="1" stop-color="#203047" stop-opacity="0"/></radialGradient>
    <pattern id="grid" width="56" height="56" patternUnits="userSpaceOnUse"><path d="M56 0H0v56" fill="none" stroke="#e2e8f0" stroke-opacity=".055" stroke-width="1"/></pattern>
  </defs>
  <rect width="1200" height="675" fill="url(#bg)"/>
  <rect width="1200" height="675" fill="url(#grid)"/>
  <rect width="1200" height="675" fill="url(#wash)"/>
  <rect x="86" y="78" width="1028" height="520" rx="34" fill="#0f172a" fill-opacity=".28" stroke="#e2e8f0" stroke-opacity=".12"/>
  <path d="M134 132h184M134 166h96" stroke="#e2e8f0" stroke-opacity=".18" stroke-width="7" stroke-linecap="round"/>
  <path d="M1066 544h-184M1066 510h-96" stroke="#e2e8f0" stroke-opacity=".16" stroke-width="7" stroke-linecap="round"/>
  
      <path d="M246 440c102-118 210-140 324-60s230 60 354-86" fill="none" stroke="#d88972" stroke-width="9" opacity=".82"/>
      <path d="M250 302c118 34 222 22 312-38 116-77 232-65 348 35" fill="none" stroke="#2aa6a1" stroke-width="7" opacity=".7"/>
      <circle cx="246" cy="440" r="18" fill="#d88972"/><circle cx="924" cy="294" r="18" fill="#2aa6a1"/>
      <rect x="424" y="172" width="344" height="104" rx="18" fill="none" stroke="#dbeafe" stroke-width="5" opacity=".27"/>
      <path d="M470 224h252M470 254h158" stroke="#dbeafe" stroke-width="5" opacity=".24"/>
</svg>
