<svg xmlns="http://www.w3.org/2000/svg" width="1200" height="675" viewBox="0 0 1200 675" role="img" aria-labelledby="title desc">
  <title>FermatMind editorial cover placeholder for childhood-dream-job-still-shapes-career-choice</title>
  <desc>Abstract academic editorial cover placeholder generated in-house for launch readiness.</desc>
  <defs>
    <linearGradient id="bg" x1="0" y1="0" x2="1" y2="1"><stop offset="0" stop-color="#0f172a"/><stop offset="1" stop-color="#020617"/></linearGradient>
    <radialGradient id="wash" cx="34%" cy="22%" r="70%"><stop offset="0" stop-color="#1f3b36" stop-opacity=".92"/><stop offset="1" stop-color="#1f3b36" stop-opacity="0"/></radialGradient>
    <pattern id="grid" width="56" height="56" patternUnits="userSpaceOnUse"><path d="M56 0H0v56" fill="none" stroke="#e2e8f0" stroke-opacity=".055" stroke-width="1"/></pattern>
  </defs>
  <rect width="1200" height="675" fill="url(#bg)"/>
  <rect width="1200" height="675" fill="url(#grid)"/>
  <rect width="1200" height="675" fill="url(#wash)"/>
  <rect x="86" y="78" width="1028" height="520" rx="34" fill="#0f172a" fill-opacity=".28" stroke="#e2e8f0" stroke-opacity=".12"/>
  <path d="M134 132h184M134 166h96" stroke="#e2e8f0" stroke-opacity=".18" stroke-width="7" stroke-linecap="round"/>
  <path d="M1066 544h-184M1066 510h-96" stroke="#e2e8f0" stroke-opacity=".16" stroke-width="7" stroke-linecap="round"/>
  
      <path d="M244 438h710" stroke="#dbeafe" stroke-width="6" opacity=".22"/>
      <circle cx="294" cy="438" r="20" fill="#d8b46a"/><circle cx="538" cy="438" r="18" fill="#4f9d7a"/><circle cx="792" cy="438" r="20" fill="#e2e8f0" opacity=".68"/>
      <path d="M294 438c60-142 172-184 244-92 74 94 166 78 254-48" fill="none" stroke="#4f9d7a" stroke-width="8" opacity=".72"/>
      <path d="m294 254 18 38 42 6-30 29 7 42-37-20-37 20 7-42-30-29 42-6 18-38Z" fill="#d8b46a" opacity=".82"/>
      <rect x="706" y="204" width="220" height="150" rx="18" fill="none" stroke="#d8b46a" stroke-width="6" opacity=".58"/><path d="M740 254h152M740 304h104" stroke="#dbeafe" stroke-width="5" opacity=".3"/>
</svg>
