<svg xmlns="http://www.w3.org/2000/svg" width="1200" height="675" viewBox="0 0 1200 675" role="img" aria-labelledby="title desc">
  <title>FermatMind editorial cover placeholder for how-16-personality-types-talk-to-an-ai-coach</title>
  <desc>Abstract academic editorial cover placeholder generated in-house for launch readiness.</desc>
  <defs>
    <linearGradient id="bg" x1="0" y1="0" x2="1" y2="1"><stop offset="0" stop-color="#0b1320"/><stop offset="1" stop-color="#020617"/></linearGradient>
    <radialGradient id="wash" cx="34%" cy="22%" r="70%"><stop offset="0" stop-color="#21314a" stop-opacity=".92"/><stop offset="1" stop-color="#21314a" stop-opacity="0"/></radialGradient>
    <pattern id="grid" width="56" height="56" patternUnits="userSpaceOnUse"><path d="M56 0H0v56" fill="none" stroke="#e2e8f0" stroke-opacity=".055" stroke-width="1"/></pattern>
  </defs>
  <rect width="1200" height="675" fill="url(#bg)"/>
  <rect width="1200" height="675" fill="url(#grid)"/>
  <rect width="1200" height="675" fill="url(#wash)"/>
  <rect x="86" y="78" width="1028" height="520" rx="34" fill="#0f172a" fill-opacity=".28" stroke="#e2e8f0" stroke-opacity=".12"/>
  <path d="M134 132h184M134 166h96" stroke="#e2e8f0" stroke-opacity=".18" stroke-width="7" stroke-linecap="round"/>
  <path d="M1066 544h-184M1066 510h-96" stroke="#e2e8f0" stroke-opacity=".16" stroke-width="7" stroke-linecap="round"/>
  
      <rect x="266" y="190" width="286" height="176" rx="26" fill="none" stroke="#4db6d6" stroke-width="8" opacity=".82"/>
      <rect x="650" y="214" width="270" height="226" rx="30" fill="none" stroke="#d3aa55" stroke-width="7" opacity=".72"/>
      <path d="M326 250h154M326 306h104M708 282h154M708 340h110" stroke="#e2e8f0" stroke-width="6" opacity=".34"/>
      <path d="M552 314c54 50 92 50 98 50" fill="none" stroke="#dbeafe" stroke-width="6" opacity=".28"/>
      <circle cx="310" cy="484" r="8" fill="#d3aa55" opacity=".75"/><circle cx="346" cy="484" r="8" fill="#4db6d6" opacity=".75"/><circle cx="382" cy="484" r="8" fill="#4db6d6" opacity=".75"/><circle cx="418" cy="484" r="8" fill="#d3aa55" opacity=".75"/><circle cx="454" cy="484" r="8" fill="#4db6d6" opacity=".75"/><circle cx="490" cy="484" r="8" fill="#4db6d6" opacity=".75"/><circle cx="526" cy="484" r="8" fill="#d3aa55" opacity=".75"/><circle cx="562" cy="484" r="8" fill="#4db6d6" opacity=".75"/><circle cx="310" cy="522" r="8" fill="#4db6d6" opacity=".75"/><circle cx="346" cy="522" r="8" fill="#d3aa55" opacity=".75"/><circle cx="382" cy="522" r="8" fill="#4db6d6" opacity=".75"/><circle cx="418" cy="522" r="8" fill="#4db6d6" opacity=".75"/><circle cx="454" cy="522" r="8" fill="#d3aa55" opacity=".75"/><circle cx="490" cy="522" r="8" fill="#4db6d6" opacity=".75"/><circle cx="526" cy="522" r="8" fill="#4db6d6" opacity=".75"/><circle cx="562" cy="522" r="8" fill="#d3aa55" opacity=".75"/>
</svg>
