<svg xmlns="http://www.w3.org/2000/svg" width="1200" height="675" viewBox="0 0 1200 675" role="img" aria-labelledby="title desc">
  <title>FermatMind editorial cover placeholder for how-personality-shapes-attitude-toward-ai</title>
  <desc>Abstract academic editorial cover placeholder generated in-house for launch readiness.</desc>
  <defs>
    <linearGradient id="bg" x1="0" y1="0" x2="1" y2="1"><stop offset="0" stop-color="#0f172a"/><stop offset="1" stop-color="#020617"/></linearGradient>
    <radialGradient id="wash" cx="34%" cy="22%" r="70%"><stop offset="0" stop-color="#12313f" stop-opacity=".92"/><stop offset="1" stop-color="#12313f" stop-opacity="0"/></radialGradient>
    <pattern id="grid" width="56" height="56" patternUnits="userSpaceOnUse"><path d="M56 0H0v56" fill="none" stroke="#e2e8f0" stroke-opacity=".055" stroke-width="1"/></pattern>
  </defs>
  <rect width="1200" height="675" fill="url(#bg)"/>
  <rect width="1200" height="675" fill="url(#grid)"/>
  <rect width="1200" height="675" fill="url(#wash)"/>
  <rect x="86" y="78" width="1028" height="520" rx="34" fill="#0f172a" fill-opacity=".28" stroke="#e2e8f0" stroke-opacity=".12"/>
  <path d="M134 132h184M134 166h96" stroke="#e2e8f0" stroke-opacity=".18" stroke-width="7" stroke-linecap="round"/>
  <path d="M1066 544h-184M1066 510h-96" stroke="#e2e8f0" stroke-opacity=".16" stroke-width="7" stroke-linecap="round"/>
  
      <path d="M300 210c52-58 142-58 194 0 35 39 35 98 0 137-52 58-142 58-194 0-35-39-35-98 0-137Z" fill="none" stroke="#1f8a9b" stroke-width="8" opacity=".82"/>
      <path d="M398 176v246" stroke="#dbeafe" stroke-width="6" opacity=".28"/>
      <circle cx="700" cy="232" r="22" fill="#d8b46a" opacity=".9"/><circle cx="800" cy="330" r="18" fill="#1f8a9b" opacity=".85"/><circle cx="668" cy="430" r="16" fill="#e2e8f0" opacity=".72"/>
      <path d="M700 232 800 330 668 430 700 232" fill="none" stroke="#dbeafe" stroke-width="5" opacity=".45"/>
      <path d="M610 330h-94M822 330h96M668 430v62" stroke="#dbeafe" stroke-width="5" opacity=".36"/>
</svg>
