<svg xmlns="http://www.w3.org/2000/svg" width="1200" height="675" viewBox="0 0 1200 675" role="img" aria-labelledby="title desc">
  <title>FermatMind editorial cover placeholder for which-love-script-fits-you-best</title>
  <desc>Abstract academic editorial cover placeholder generated in-house for launch readiness.</desc>
  <defs>
    <linearGradient id="bg" x1="0" y1="0" x2="1" y2="1"><stop offset="0" stop-color="#111827"/><stop offset="1" stop-color="#020617"/></linearGradient>
    <radialGradient id="wash" cx="34%" cy="22%" r="70%"><stop offset="0" stop-color="#243447" stop-opacity=".92"/><stop offset="1" stop-color="#243447" stop-opacity="0"/></radialGradient>
    <pattern id="grid" width="56" height="56" patternUnits="userSpaceOnUse"><path d="M56 0H0v56" fill="none" stroke="#e2e8f0" stroke-opacity=".055" stroke-width="1"/></pattern>
  </defs>
  <rect width="1200" height="675" fill="url(#bg)"/>
  <rect width="1200" height="675" fill="url(#grid)"/>
  <rect width="1200" height="675" fill="url(#wash)"/>
  <rect x="86" y="78" width="1028" height="520" rx="34" fill="#0f172a" fill-opacity=".28" stroke="#e2e8f0" stroke-opacity=".12"/>
  <path d="M134 132h184M134 166h96" stroke="#e2e8f0" stroke-opacity=".18" stroke-width="7" stroke-linecap="round"/>
  <path d="M1066 544h-184M1066 510h-96" stroke="#e2e8f0" stroke-opacity=".16" stroke-width="7" stroke-linecap="round"/>
  
      <path d="M310 350 540 190 770 350 540 500Z" fill="none" stroke="#d8b46a" stroke-width="7" opacity=".72"/>
      <path d="M380 330c45-92 146-94 194 0 48-94 149-92 194 0-46 96-126 145-194 176-68-31-148-80-194-176Z" fill="none" stroke="#c77d7d" stroke-width="8" opacity=".86"/>
      <circle cx="540" cy="190" r="18" fill="#e2e8f0" opacity=".75"/><circle cx="310" cy="350" r="18" fill="#c77d7d" opacity=".75"/><circle cx="770" cy="350" r="18" fill="#d8b46a" opacity=".8"/>
      <path d="M250 504c180-76 410-76 590 0" fill="none" stroke="#dbeafe" stroke-width="5" opacity=".24"/>
</svg>
