<svg xmlns="http://www.w3.org/2000/svg" viewBox="0 0 24 24" fill="none" aria-hidden="true">
  <path fill="#fff" d="M9.34 5C5.83 5 3 7.38 3 10.33c0 1.61.84 3.06 2.18 4.03l-.73 2.53 2.73-1.4c.7.16 1.42.24 2.16.24 3.5 0 6.34-2.39 6.34-5.33C15.68 7.38 12.84 5 9.34 5Zm-2 4.96a1.06 1.06 0 1 1 0-2.12 1.06 1.06 0 0 1 0 2.12Zm3.96 0a1.06 1.06 0 1 1 0-2.12 1.06 1.06 0 0 1 0 2.12Z"/>
  <path fill="#fff" d="M16.36 10.12c-2.67 0-4.84 1.8-4.84 4 0 2.21 2.17 4 4.84 4 .46 0 .9-.05 1.34-.15l2.37 1.24-.63-2.1A4.03 4.03 0 0 0 21.2 14.1c0-2.2-2.17-3.99-4.84-3.99Zm-1.43 4.3a.86.86 0 1 1 0-1.71.86.86 0 0 1 0 1.72Zm3.02 0a.86.86 0 1 1 0-1.71.86.86 0 0 1 0 1.72Z"/>
</svg>
